:SAMPLES-PER-SECOND 30
:FULLY-SPECIFIED
:DEGREES
412
root  53.0311 39.0093 -8.46415 175.102 -28.6316 -177.953
RightUpLeg  -14.9826 -3.76833 -8.09344
RightLeg  60.8273 -2.6182 -5.5633
RightFoot  9.65216 -0.587636 3.51314
RightToes  -5.8209e-011 0 -3.6325e-017
Spine  6.38317 0.560785 0.440879
Spine1  5.84642 0.77625 -2.18585
HEad  22.9437 32.9408 58.0054
LeftShoulder1  8.03095 -11.029 -48.2271
LeftArm  -6.92035 13.9147 -27.3208
LeftForeArm  26.224 -13.5913 -5.3626
LeftHand  -0.244104 0.0205437 5.32207
RightShoulder  5.75615 9.01592 39.8471
RightArm  0.95316 -17.2207 33.3841
RightForeArm  10.7783 17.3125 5.39029
RightHand  -0.356579 -1.02513 -9.41936
LeftUpLeg  -2.42552 1.41845 -10.3289
LeftLeg  11.2934 22.4933 -1.36023
LeftFoot  -12.5142 0.223253 14.3177
LeftToes  1.76439e-010 -1.07097e-011 2.32476e-011
413
root  52.6635 39.1538 -9.40865 174.124 -33.48 -176.715
RightUpLeg  -17.9042 -1.87551 -7.65757
RightLeg  56.309 -4.46221 -7.57377
RightFoot  7.49317 -0.112474 1.01427
RightToes  -5.8209e-011 0 -3.6325e-017
Spine  7.76901 -0.332283 0.682262
Spine1  5.04524 -0.359223 -1.07751
HEad  21.2563 33.0521 57.7269
LeftShoulder1  8.39617 -11.4456 -49.0224
LeftArm  -3.4515 9.43 -30.006
LeftForeArm  25.9491 -15.7827 -5.23859
LeftHand  -0.244104 0.0205437 5.32207
RightShoulder  5.703 9.01555 39.4447
RightArm  0.740208 -16.6771 32.9875
RightForeArm  9.30489 17.5976 5.35949
RightHand  -0.383752 -0.80512 -9.679
LeftUpLeg  0.367273 1.66834 -9.35203
LeftLeg  10.5658 17.5832 -1.90738
LeftFoot  -12.9463 0.284792 14.6527
LeftToes  1.76439e-010 -1.07097e-011 2.32476e-011
414
root  52.2503 39.2534 -10.3805 172.955 -37.8127 -175.475
RightUpLeg  -19.5288 -0.612361 -7.58899
RightLeg  48.9802 -6.29131 -8.03198
RightFoot  5.12532 -0.207503 1.69385
RightToes  -5.8209e-011 0 -3.6325e-017
Spine  8.88333 -0.922315 1.06432
Spine1  4.83255 -1.09482 -0.304727
HEad  18.8329 33.6944 57.1768
LeftShoulder1  8.74246 -11.8764 -49.6179
LeftArm  2.16805 5.21251 -32.4615
LeftForeArm  24.9285 -18.6563 -4.67153
LeftHand  -0.244104 0.0205437 5.32207
RightShoulder  5.70527 9.07586 39.2538
RightArm  0.856951 -15.8639 32.1048
RightForeArm  7.69677 17.6771 5.41903
RightHand  -0.39763 -0.981125 -10.4228
LeftUpLeg  2.96746 1.87576 -8.30421
LeftLeg  10.3597 13.3415 -1.90026
LeftFoot  -13.727 0.391751 14.7678
LeftToes  1.76439e-010 -1.07097e-011 2.32476e-011
415
root  51.7815 39.1922 -11.4367 172.395 -41.3787 -174.795
RightUpLeg  -20.4382 0.0364419 -7.91686
RightLeg  39.2425 -6.73646 -6.17194
RightFoot  4.24942 -0.450226 3.48683
RightToes  -5.8209e-011 0 -3.6325e-017
Spine  9.26153 -1.13789 1.06117
Spine1  4.89919 -1.36484 -0.169751
HEad  16.1311 34.2421 56.4549
LeftShoulder1  9.00578 -12.26 -49.8706
LeftArm  7.82161 1.76578 -34.7393
LeftForeArm  25.2809 -22.1146 -3.89262
LeftHand  -0.244104 0.0205437 5.32207
RightShoulder  5.72672 9.17507 39.077
RightArm  0.985091 -14.9682 31.0777
RightForeArm  6.9881 17.3688 5.56206
RightHand  -0.371898 -1.41654 -10.7486
LeftUpLeg  4.57764 2.25874 -7.47004
LeftLeg  11.6119 9.64736 -1.59947
LeftFoot  -15.4457 0.613954 14.4518
LeftToes  1.76439e-010 -1.07097e-011 2.32476e-011
416
root  51.222 39.0612 -12.5614 172.716 -44.435 -174.757
RightUpLeg  -20.848 -0.595764 -8.28992
RightLeg  27.4199 -4.33461 -2.76301
RightFoot  4.87698 -0.687688 5.04169
RightToes  -5.8209e-011 0 -3.6325e-017
Spine  9.1461 -1.2581 0.622746
Spine1  4.60022 -1.48912 -0.0252311
HEad  13.9074 34.8087 56.1895
LeftShoulder1  9.12269 -12.4782 -49.8291
LeftArm  9.75364 -0.33731 -36.5154
LeftForeArm  29.3922 -26.18 -4.00313
LeftHand  -0.244104 0.0205437 5.32207
RightShoulder  5.77095 9.34526 38.8344
RightArm  0.853978 -14.1262 30.0685
RightForeArm  7.73917 16.4922 5.8111
RightHand  -0.346029 -1.62171 -10.5182
LeftUpLeg  5.80381 2.69838 -6.82871
LeftLeg  12.8211 6.17181 -1.69214
LeftFoot  -17.0969 0.825976 14.2869
LeftToes  1.76439e-010 -1.07097e-011 2.32476e-011
417
root  50.5753 38.9702 -13.6793 173.195 -47.3078 -174.777
RightUpLeg  -20.3122 -3.65133 -8.0374
RightLeg  14.0213 0.521037 0.0846155
RightFoot  5.43041 -1.12424 7.87957
RightToes  -5.8209e-011 0 -3.6325e-017
Spine  9.06095 -1.49881 0.439974
Spine1  4.09245 -1.72258 0.433773
HEad  12.0825 35.2521 55.7067
LeftShoulder1  9.19132 -12.5814 -49.8821
LeftArm  9.11845 -1.20112 -37.2404
LeftForeArm  34.1468 -30.8818 -4.85273
LeftHand  -0.244104 0.0205437 5.32207
RightShoulder  5.8066 9.49169 38.6124
RightArm  0.27275 -13.2495 29.1526
RightForeArm  9.1962 15.1591 6.15028
RightHand  -0.364498 -1.4157 -10.5306
LeftUpLeg  7.50112 3.06168 -6.0592
LeftLeg  12.8605 2.78691 -2.0554
LeftFoot  -18.2278 0.974387 14.2833
LeftToes  1.76439e-010 -1.07097e-011 2.32476e-011
